<svg id="Capa_1" enable-background="new 0 0 512 512" height="512" viewBox="0 0 512 512" width="512" xmlns="http://www.w3.org/2000/svg"><g><path d="m262.578 135.512c0-28.836 8.783-55.658 23.812-77.936h-271.391c-8.284 0-14.999 6.716-14.999 15v308.617c0 8.284 6.715 14.999 14.999 14.999h312.312l99.706 86.348c2.781 2.409 6.281 3.661 9.822 3.661 2.111 0 4.236-.445 6.23-1.356 5.34-2.44 8.767-7.771 8.767-13.643v-205.065c-15.408 5.864-32.107 9.085-49.547 9.085-77.038.001-139.711-62.673-139.711-139.71zm-187.583-13.4h101.629c8.284 0 14.999 6.715 14.999 14.999s-6.715 14.999-14.999 14.999h-101.629c-8.284 0-14.999-6.715-14.999-14.999s6.716-14.999 14.999-14.999zm0 59.996h121.628c8.284 0 14.999 6.715 14.999 14.999s-6.715 14.999-14.999 14.999h-121.628c-8.284 0-14.999-6.715-14.999-14.999s6.716-14.999 14.999-14.999zm0 59.996h91.63c8.284 0 14.999 6.715 14.999 14.999s-6.715 14.999-14.999 14.999h-91.63c-8.284 0-14.999-6.715-14.999-14.999 0-8.283 6.716-14.999 14.999-14.999zm211.622 89.994h-211.622c-8.284 0-14.999-6.715-14.999-14.999s6.715-14.999 14.999-14.999h211.622c8.284 0 14.999 6.715 14.999 14.999s-6.715 14.999-14.999 14.999z"/><path d="m402.288 25.8c-60.495 0-109.712 49.217-109.712 109.713 0 60.495 49.217 109.712 109.712 109.712s109.712-49.217 109.712-109.713c0-60.495-49.217-109.712-109.712-109.712zm3.8 172.728c-8.284 0-14.999-6.715-14.999-14.999v-60.224l-.858.857c-5.857 5.858-15.354 5.858-21.212 0s-5.858-15.354 0-21.212l26.463-26.463c4.288-4.29 10.74-5.573 16.346-3.252 5.605 2.322 9.259 7.791 9.259 13.858v96.435c0 8.284-6.715 15-14.999 15z"/></g></svg>